<?xml version="1.0" encoding="UTF-8" standalone="no"?>
<svg
   xmlns:dc="http://purl.org/dc/elements/1.1/"
   xmlns:cc="http://creativecommons.org/ns#"
   xmlns:rdf="http://www.w3.org/1999/02/22-rdf-syntax-ns#"
   xmlns:svg="http://www.w3.org/2000/svg"
   xmlns="http://www.w3.org/2000/svg"
   xmlns:sodipodi="http://sodipodi.sourceforge.net/DTD/sodipodi-0.dtd"
   xmlns:inkscape="http://www.inkscape.org/namespaces/inkscape"
   width="640"
   height="480"
   id="svg2"
   version="1.1"
   inkscape:version="0.48.3.1 r9886"
   sodipodi:docname="Layer 1.svg"
   inkscape:export-filename="/home/marin/Desktop/Layer 1.png"
   inkscape:export-xdpi="32.029999"
   inkscape:export-ydpi="32.029999">
  <defs
     id="defs58" />
  <sodipodi:namedview
     pagecolor="#ffffff"
     bordercolor="#666666"
     borderopacity="1"
     objecttolerance="10"
     gridtolerance="10"
     guidetolerance="10"
     inkscape:pageopacity="0"
     inkscape:pageshadow="2"
     inkscape:window-width="1366"
     inkscape:window-height="744"
     id="namedview56"
     showgrid="false"
     inkscape:zoom="2.5809397"
     inkscape:cx="155.0253"
     inkscape:cy="360.22445"
     inkscape:window-x="0"
     inkscape:window-y="24"
     inkscape:window-maximized="1"
     inkscape:current-layer="svg2" />
  <metadata
     id="metadata7">image/svg+xml<rdf:RDF>
  <cc:Work
     rdf:about="">
    <dc:format>image/svg+xml</dc:format>
    <dc:type
       rdf:resource="http://purl.org/dc/dcmitype/StillImage" />
    <dc:title></dc:title>
  </cc:Work>
</rdf:RDF>
</metadata>
  <path
     style="fill:none;stroke:#333333;stroke-width:7"
     inkscape:connector-curvature="0"
     d="m 236.29567,125.3688 c 0,57.47013 -46.58876,104.05887 -104.05888,104.05887 -57.47015,0 -104.058899,-46.58874 -104.058899,-104.05887 0,-57.470134 46.588749,-104.058919 104.058899,-104.058919 57.47012,0 104.05888,46.588785 104.05888,104.058919 z"
     id="path2858" />
  <path
     style="fill:#ff7f2a;stroke:#4d4d4d"
     inkscape:connector-curvature="0"
     d="m 128.94911,123.58991 71.21652,-36.938054 -66.78396,41.370604 -4.43256,-4.43255 z"
     id="path3674" />
  <path
     style="fill:#666666;stroke:#1a1a1a"
     inkscape:connector-curvature="0"
     d="m 140.63042,125.39086 c 0,4.73287 -3.83678,8.56965 -8.56966,8.56965 -4.73287,0 -8.56964,-3.83678 -8.56964,-8.56965 0,-4.73287 3.83677,-8.56964 8.56964,-8.56964 4.73288,0 8.56966,3.83677 8.56966,8.56964 z"
     id="path3662" />
  <path
     style="fill:#ff9955;stroke:#ff7f2a;stroke-width:5"
     inkscape:connector-curvature="0"
     d="m 40.002319,125.38953 9.160629,0"
     id="path3676" />
  <path
     style="fill:#ff9955;stroke:#ff7f2a;stroke-width:5"
     inkscape:connector-curvature="0"
     id="path3678"
     d="m 214.94086,125.38953 9.16063,0" />
  <path
     style="fill:#ff9955;stroke:#ff7f2a;stroke-width:5"
     inkscape:connector-curvature="0"
     d="m 210.81538,92.764587 6.27924,-2.600952"
     id="path3688" />
  <path
     style="fill:#ff9955;stroke:#ff7f2a;stroke-width:5"
     inkscape:connector-curvature="0"
     id="path3700"
     d="m 217.9854,108.29627 4.34739,-0.86475" />
  <path
     style="fill:#ff9955;stroke:#ff7f2a;stroke-width:5"
     inkscape:connector-curvature="0"
     d="m 190.66324,66.778137 6.47755,-6.477539"
     id="path3712" />
  <path
     style="fill:#ff9955;stroke:#ff7f2a;stroke-width:5"
     inkscape:connector-curvature="0"
     id="path3718"
     d="m 132.05189,42.500549 0,-9.160645" />
  <path
     style="fill:#ff9955;stroke:#ff7f2a;stroke-width:5"
     inkscape:connector-curvature="0"
     d="M 73.440567,66.778137 66.96302,60.300598"
     id="path3724" />
  <path
     style="fill:#ff9955;stroke:#ff7f2a;stroke-width:5"
     inkscape:connector-curvature="0"
     id="path3738"
     d="m 164.6768,46.626038 2.60094,-6.279236" />
  <path
     style="fill:#ff9955;stroke:#ff7f2a;stroke-width:5"
     inkscape:connector-curvature="0"
     d="M 99.427002,46.626038 96.82605,40.346802"
     id="path3744" />
  <path
     style="fill:#ff9955;stroke:#ff7f2a;stroke-width:5"
     inkscape:connector-curvature="0"
     id="path3750"
     d="M 53.288422,92.764587 47.009179,90.163635" />
  <path
     style="fill:#ff9955;stroke:#ff7f2a;stroke-width:5"
     inkscape:connector-curvature="0"
     d="m 204.9028,76.712097 3.68553,-2.462585"
     id="path3764" />
  <path
     style="fill:#ff9955;stroke:#ff7f2a;stroke-width:5"
     inkscape:connector-curvature="0"
     id="path3770"
     d="m 180.72931,52.538635 2.4626,-3.685547" />
  <path
     style="fill:#ff9955;stroke:#ff7f2a;stroke-width:5"
     inkscape:connector-curvature="0"
     d="m 149.14514,39.455994 0.86475,-4.347412"
     id="path3776" />
  <path
     style="fill:#ff9955;stroke:#ff7f2a;stroke-width:5"
     inkscape:connector-curvature="0"
     id="path3782"
     d="m 114.95867,39.455994 -0.86475,-4.347412" />
  <path
     style="fill:#ff9955;stroke:#ff7f2a;stroke-width:5"
     inkscape:connector-curvature="0"
     d="M 83.374496,52.538635 80.911888,48.853088"
     id="path3788" />
  <path
     style="fill:#ff9955;stroke:#ff7f2a;stroke-width:5"
     inkscape:connector-curvature="0"
     id="path3794"
     d="M 59.201012,76.712097 55.515469,74.249512" />
  <path
     style="fill:#ff9955;stroke:#ff7f2a;stroke-width:5"
     inkscape:connector-curvature="0"
     d="m 46.11842,108.29627 -4.347401,-0.86475"
     id="path3800" />
  <path
     style="fill:#c8a406;stroke:#c8a406"
     inkscape:connector-curvature="0"
     id="path3751"
     d="m 61.45892,129.71478 c -0.300121,0 -0.55022,-0.0923 -0.750301,-0.27704 -0.200077,-0.18469 -0.300117,-0.41168 -0.300117,-0.68103 0,-0.27703 0.102921,-0.50402 0.308781,-0.68103 0.205849,-0.177 0.462677,-0.2655 0.7705,-0.2655 0.311657,0 0.56657,0.0895 0.764729,0.26837 0.198158,0.1789 0.297241,0.40497 0.297241,0.67817 0,0.28088 -0.101013,0.5108 -0.303013,0.68969 -0.202,0.1789 -0.464607,0.26837 -0.787819,0.26837 z" />
  <path
     style="fill:#999999;stroke:#999999"
     inkscape:connector-curvature="0"
     id="path3740"
     d="m 78.490799,79.630005 -5.234802,0 0,-1.442993 1.714203,0 0,-5.153992 -1.760399,0.380981 0,-1.47699 3.5784,-0.721985 0,6.971985 1.702599,0 0,1.442993 z" />
  <path
     style="fill:#999999;stroke:#999999"
     inkscape:connector-curvature="0"
     id="path3742"
     d="m 80.66671,79.774597 c -0.300117,0 -0.550217,-0.09241 -0.750298,-0.277039 -0.200096,-0.184692 -0.300133,-0.411682 -0.300133,-0.68103 0,-0.277039 0.102928,-0.504028 0.308777,-0.68103 0.205856,-0.177002 0.462692,-0.265503 0.770515,-0.265503 0.311661,0 0.566566,0.08948 0.764725,0.268372 0.198151,0.178894 0.297234,0.404968 0.297241,0.678162 -8e-6,0.280884 -0.101006,0.510742 -0.303009,0.689697 -0.202011,0.178894 -0.464607,0.268372 -0.787819,0.268372 z" />
  <path
     style="fill:#999999;stroke:#999999"
     inkscape:connector-curvature="0"
     id="path3745"
     d="m 85.653343,79.774597 c -1.970032,0 -2.95504,-1.38324 -2.95504,-4.14978 0,-1.435181 0.266449,-2.52887 0.799355,-3.281128 0.532913,-0.752197 1.305344,-1.128296 2.317291,-1.128357 1.923851,6.1e-5 2.88578,1.406372 2.88578,4.219055 0,1.400574 -0.262611,2.47406 -0.787819,3.22052 -0.525223,0.74646 -1.278404,1.11969 -2.259567,1.11969 z m 0.08079,-7.168274 c -0.78878,0 -1.183167,0.990784 -1.183167,2.972351 0,1.86615 0.386688,2.799194 1.160088,2.799194 0.754143,0 1.131218,-0.961914 1.131218,-2.885742 0,-1.923889 -0.369377,-2.885803 -1.108139,-2.885803 z" />
  <path
     style="fill:#999999;stroke:#999999"
     inkscape:connector-curvature="0"
     id="path3733"
     d="m 126.707,52.966003 0,0.034 3.359,0 0,1.512024 -5.449,0 0,-1.419006 2.372,-2.269043 c 0.47701,-0.45697 0.813,-0.841003 1.007,-1.151001 0.195,-0.309998 0.292,-0.635986 0.292,-0.977966 0,-0.762024 -0.41,-1.143005 -1.229,-1.143005 -0.712,0 -1.393,0.28302 -2.044,0.848022 l 0,-1.604004 c 0.72,-0.466003 1.532,-0.697998 2.436,-0.699036 0.84701,10e-4 1.50699,0.213013 1.98301,0.638 0.47499,0.424988 0.71199,1 0.71199,1.723022 0,0.966003 -0.579,1.963989 -1.737,2.994995 l -1.702,1.513 z" />
  <path
     style="fill:#999999;stroke:#999999"
     inkscape:connector-curvature="0"
     id="path3735"
     d="m 132.37997,54.656738 c -0.30012,0 -0.55023,-0.09241 -0.7503,-0.277039 -0.20007,-0.184692 -0.30013,-0.411682 -0.30013,-0.68103 0,-0.277039 0.10292,-0.504089 0.3088,-0.68103 0.20584,-0.177002 0.46267,-0.265503 0.77049,-0.265503 0.31166,0 0.56657,0.08948 0.76472,0.268372 0.19817,0.178894 0.29724,0.404968 0.29724,0.678162 0,0.280884 -0.10099,0.510742 -0.303,0.689697 -0.202,0.178894 -0.4646,0.268372 -0.78782,0.268372 z" />
  <path
     style="fill:#999999;stroke:#999999"
     inkscape:connector-curvature="0"
     id="path3737"
     d="m 137.36661,54.656738 c -1.97003,0 -2.95505,-1.38324 -2.95505,-4.14978 0,-1.435181 0.26646,-2.52887 0.79938,-3.281128 0.53289,-0.752197 1.30532,-1.128296 2.31727,-1.128357 1.92385,6.1e-5 2.88578,1.406372 2.88579,4.219055 -10e-6,1.400574 -0.26262,2.47406 -0.78783,3.22052 -0.5252,0.74646 -1.27841,1.11969 -2.25956,1.11969 z m 0.0808,-7.168274 c -0.78877,0 -1.18316,0.990784 -1.18316,2.972351 0,1.86615 0.38668,2.799194 1.16008,2.799194 0.75415,0 1.13124,-0.961914 1.13124,-2.885742 0,-1.923889 -0.36939,-2.885803 -1.10816,-2.885803 z" />
  <path
     style="fill:#999999;stroke:#999999"
     inkscape:connector-curvature="0"
     id="path3726"
     d="m 175.66299,78.473022 0,-1.588013 c 0.554,0.403992 1.20101,0.606018 1.94001,0.606018 0.46499,0 0.828,-0.100037 1.087,-0.300049 0.26,-0.199951 0.39,-0.479004 0.39,-0.836975 0,-0.369019 -0.16099,-0.653992 -0.48199,-0.854004 -0.32102,-0.200012 -0.763,-0.299988 -1.32401,-0.299988 l -0.74499,0 0,-1.397034 0.68699,0 c 1.077,0 1.616,-0.357971 1.616,-1.072998 0,-0.67395 -0.414,-1.01001 -1.241,-1.01001 -0.554,0 -1.093,0.179016 -1.616,0.537048 l 0,-1.489014 c 0.581,-0.29303 1.258,-0.439026 2.032,-0.439026 0.846,0 1.50499,0.190002 1.976,0.571045 0.472,0.380981 0.707,0.875977 0.707,1.483948 0,1.081055 -0.548,1.758057 -1.645,2.031006 l 0,0.02905 c 0.585,0.073 1.04699,0.28595 1.386,0.637939 0.338,0.352051 0.507,0.784058 0.507,1.296021 0,0.77301 -0.28199,1.38501 -0.848,1.835022 -0.566,0.450012 -1.347,0.674988 -2.34301,0.674988 -0.85398,0 -1.54899,-0.138 -2.084,-0.414978 l 0,0 z" />
  <path
     style="fill:#999999;stroke:#999999"
     inkscape:connector-curvature="0"
     id="path3728"
     d="m 183.20671,78.888062 c -0.30012,0 -0.55022,-0.09229 -0.7503,-0.277039 -0.20009,-0.184692 -0.30013,-0.411682 -0.30013,-0.68103 0,-0.277039 0.10294,-0.504089 0.30878,-0.68103 0.20585,-0.177002 0.46269,-0.265503 0.77051,-0.265503 0.31166,0 0.56657,0.08948 0.76474,0.268372 0.19815,0.178894 0.29722,0.404968 0.29724,0.678162 -2e-5,0.280884 -0.10102,0.510803 -0.30301,0.689697 -0.20201,0.178894 -0.46462,0.268372 -0.78783,0.268372 z" />
  <path
     style="fill:#999999;stroke:#999999"
     inkscape:connector-curvature="0"
     id="path3730"
     d="m 188.19334,78.888062 c -1.97003,0 -2.95504,-1.38324 -2.95504,-4.14978 0,-1.435181 0.26644,-2.52887 0.79936,-3.281128 0.53291,-0.752197 1.30534,-1.128296 2.31729,-1.128296 1.92384,0 2.88577,1.406311 2.88577,4.218994 0,1.400574 -0.2626,2.47406 -0.78781,3.22052 -0.52521,0.74646 -1.2784,1.11969 -2.25957,1.11969 z m 0.0808,-7.168274 c -0.78879,0 -1.18318,0.990784 -1.18318,2.972351 0,1.86615 0.3867,2.799194 1.16009,2.799194 0.75415,0 1.13121,-0.961914 1.13123,-2.885742 -2e-5,-1.923889 -0.36939,-2.885803 -1.10814,-2.885803 z" />
  <path
     style="fill:#c8a406;stroke:#c8a406"
     inkscape:connector-curvature="0"
     id="path3721"
     d="m 203.00549,129.71478 c -0.30012,0 -0.55021,-0.0923 -0.7503,-0.27704 -0.20008,-0.18469 -0.30013,-0.41168 -0.30013,-0.68103 0,-0.27703 0.10292,-0.50402 0.30879,-0.68103 0.20585,-0.177 0.46268,-0.2655 0.7705,-0.2655 0.31166,0 0.56657,0.0895 0.76474,0.26837 0.19815,0.1789 0.29722,0.40497 0.29722,0.67817 0,0.28088 -0.10099,0.5108 -0.30301,0.68969 -0.20201,0.1789 -0.4646,0.26837 -0.78781,0.26837 z" />
  <path
     style="fill:#999999;stroke:#999999"
     inkscape:connector-curvature="0"
     id="path3711"
     d="m 196.16823,98.130127 0,-1.10437 c 0.38553,0.281128 0.83529,0.421692 1.34932,0.421692 0.32394,0 0.57628,-0.06958 0.75699,-0.208862 0.18071,-0.13916 0.27105,-0.333313 0.27107,-0.582275 -2e-5,-0.257019 -0.11179,-0.455139 -0.33533,-0.59436 -0.22356,-0.13916 -0.53076,-0.208801 -0.92163,-0.208801 l -0.51805,0 0,-0.971863 0.47789,0 c 0.74962,6.1e-5 1.12443,-0.248962 1.12443,-0.746887 0,-0.468567 -0.28781,-0.70282 -0.8634,-0.70282 -0.38553,0 -0.76034,0.124512 -1.12443,0.373474 l 0,-1.036072 c 0.40425,-0.203491 0.87544,-0.305176 1.41357,-0.305237 0.58899,6.1e-5 1.04746,0.132568 1.37543,0.397583 0.32795,0.265076 0.49193,0.60907 0.49194,1.032104 -1e-5,0.752258 -0.38152,1.22345 -1.14452,1.413574 l 0,0.02008 c 0.40694,0.0509 0.7282,0.198792 0.96379,0.443726 0.23562,0.244995 0.3534,0.545532 0.35341,0.901611 -1e-5,0.538086 -0.19677,0.963806 -0.59033,1.277039 -0.39357,0.313232 -0.93703,0.469849 -1.63043,0.469849 -0.59435,0 -1.07759,-0.09644 -1.44972,-0.289185 z" />
  <path
     style="fill:#999999;stroke:#999999"
     inkscape:connector-curvature="0"
     id="path3713"
     d="m 201.41695,98.41925 c -0.20884,0 -0.38285,-0.06427 -0.52205,-0.192749 -0.13922,-0.12854 -0.20884,-0.286499 -0.20884,-0.473877 0,-0.192749 0.0716,-0.350708 0.21485,-0.473877 0.14323,-0.123169 0.32194,-0.184692 0.53612,-0.184753 0.21685,6.1e-5 0.39422,0.06232 0.53209,0.186768 0.13787,0.124512 0.20681,0.281799 0.20681,0.471863 0,0.195435 -0.0703,0.355408 -0.21083,0.479919 -0.14055,0.124451 -0.32327,0.186707 -0.54815,0.186707 z" />
  <path
     style="fill:#999999;stroke:#999999"
     inkscape:connector-curvature="0"
     id="path3715"
     d="m 203.20799,98.170288 0,-1.08429 c 0.39356,0.240967 0.81253,0.36145 1.25696,0.36145 0.33466,0 0.59634,-0.07959 0.7851,-0.238953 0.18875,-0.159302 0.28311,-0.375488 0.28312,-0.64856 -1e-5,-0.570251 -0.40294,-0.855347 -1.20877,-0.855347 -0.26237,0 -0.57962,0.02405 -0.95177,0.07227 l 0,-3.216675 3.18859,0 0,1.036072 -2.1043,0 0,1.152527 c 0.16866,-0.01605 0.32796,-0.02411 0.47789,-0.02411 0.59166,0 1.05481,0.155334 1.38948,0.465881 0.33465,0.310547 0.50197,0.72821 0.50197,1.25293 0,0.580933 -0.19945,1.055481 -0.59836,1.423584 -0.39891,0.368164 -0.93971,0.552185 -1.62239,0.552185 -0.5542,0 -1.02003,-0.08301 -1.39752,-0.248962 z" />
  <path
     style="fill:#999999;stroke:#999999"
     inkscape:connector-curvature="0"
     id="path3704"
     d="m 159.349,56.16803 0,0.02399 2.338,0 0,1.052002 -3.791,0 0,-0.988037 1.65,-1.578003 c 0.33201,-0.31897 0.566,-0.585999 0.70099,-0.800964 0.13501,-0.216003 0.20301,-0.442993 0.20301,-0.68103 0,-0.529968 -0.28501,-0.794983 -0.85601,-0.794983 -0.49499,0 -0.96899,0.195984 -1.42099,0.590027 l 0,-1.116028 c 0.5,-0.323975 1.06501,-0.486023 1.694,-0.486023 0.58899,0 1.049,0.14801 1.37999,0.442993 0.33001,0.296021 0.49601,0.696045 0.49601,1.199036 0,0.671997 -0.403,1.367004 -1.209,2.083984 l -1.185,1.05304 z" />
  <path
     style="fill:#999999;stroke:#999999"
     inkscape:connector-curvature="0"
     id="path3706"
     d="m 163.29689,57.344177 c -0.20882,0 -0.38284,-0.06427 -0.52205,-0.192749 -0.13922,-0.12854 -0.20883,-0.286438 -0.20883,-0.473877 0,-0.192749 0.0716,-0.350708 0.21484,-0.473877 0.14324,-0.123169 0.32193,-0.184753 0.53612,-0.184753 0.21686,0 0.39423,0.06226 0.5321,0.186768 0.13788,0.124512 0.20682,0.281799 0.20682,0.471863 0,0.195435 -0.0703,0.355408 -0.21083,0.479919 -0.14056,0.124451 -0.32329,0.186707 -0.54817,0.186707 z" />
  <path
     style="fill:#999999;stroke:#999999"
     inkscape:connector-curvature="0"
     id="path3708"
     d="m 165.08797,57.095215 0,-1.08429 c 0.39355,0.240967 0.81254,0.36145 1.25695,0.36145 0.33466,0 0.59636,-0.07971 0.78511,-0.238953 0.18874,-0.159302 0.28312,-0.375488 0.28312,-0.64856 0,-0.570251 -0.40293,-0.855408 -1.20877,-0.855408 -0.26236,0 -0.57962,0.02411 -0.95176,0.07233 l 0,-3.216675 3.18857,0 0,1.036072 -2.10429,0 0,1.152527 c 0.16865,-0.01605 0.32795,-0.02405 0.47789,-0.02405 0.59166,0 1.05482,0.155273 1.38948,0.46582 0.33465,0.310547 0.50197,0.72821 0.50198,1.25293 -1e-5,0.580933 -0.19946,1.055481 -0.59836,1.423645 -0.39891,0.368103 -0.93971,0.552185 -1.6224,0.552185 -0.55419,0 -1.02004,-0.08301 -1.39752,-0.249023 z" />
  <path
     style="fill:#999999;stroke:#999999"
     inkscape:connector-curvature="0"
     id="path3696"
     d="m 100.614,57.539001 -3.642901,0 0,-1.004028 1.192703,0 0,-3.585999 -1.2248,0.265015 0,-1.028015 2.489799,-0.501953 0,4.850952 1.185199,0 0,1.004028 z" />
  <path
     style="fill:#999999;stroke:#999999"
     inkscape:connector-curvature="0"
     id="path3698"
     d="m 102.12748,57.639648 c -0.20882,0 -0.38284,-0.06421 -0.52206,-0.192749 -0.13921,-0.12854 -0.20882,-0.286499 -0.20882,-0.473877 0,-0.192749 0.0716,-0.350708 0.21485,-0.473877 0.14323,-0.123169 0.32193,-0.184753 0.53611,-0.184753 0.21686,0 0.39422,0.06226 0.5321,0.186768 0.13788,0.124512 0.20682,0.281799 0.20682,0.471863 0,0.195435 -0.0703,0.355408 -0.21083,0.479858 -0.14056,0.124512 -0.32328,0.186768 -0.54817,0.186768 z" />
  <path
     style="fill:#999999;stroke:#999999"
     inkscape:connector-curvature="0"
     id="path3701"
     d="m 103.91855,57.390686 0,-1.08429 c 0.39355,0.240967 0.81254,0.36145 1.25696,0.36145 0.33465,0 0.59635,-0.07971 0.7851,-0.238953 0.18874,-0.159302 0.28311,-0.375488 0.28312,-0.64856 -1e-5,-0.570251 -0.40293,-0.855347 -1.20877,-0.855347 -0.26237,0 -0.57963,0.02405 -0.95176,0.07227 l 0,-3.216675 3.18858,0 0,1.036072 -2.1043,0 0,1.152588 c 0.16866,-0.01611 0.32796,-0.02411 0.47788,-0.02411 0.59167,0 1.05483,0.155273 1.38949,0.46582 0.33465,0.310547 0.50197,0.72821 0.50198,1.25293 -10e-6,0.580994 -0.19946,1.055481 -0.59836,1.423645 -0.39891,0.368103 -0.93971,0.552185 -1.6224,0.552185 -0.55419,0 -1.02003,-0.08301 -1.39752,-0.249023 z" />
  <path
     style="fill:#999999;stroke:#999999"
     inkscape:connector-curvature="0"
     id="path3689"
     d="m 58.14159,98.123718 c -1.37075,0 -2.056122,-0.962463 -2.056122,-2.88739 0,-0.998596 0.185402,-1.759583 0.556202,-2.28302 0.370789,-0.523376 0.908249,-0.785095 1.612358,-0.785095 1.338612,0 2.007923,0.978516 2.007923,2.935608 0,0.974487 -0.18272,1.721436 -0.548161,2.240845 -0.36544,0.519348 -0.889511,0.779053 -1.572201,0.779053 z m 0.05622,-4.987671 c -0.54884,0 -0.82325,0.689392 -0.82325,2.068176 0,1.298462 0.269058,1.947693 0.807178,1.947693 0.524738,0 0.787109,-0.669312 0.787109,-2.007935 0,-1.338623 -0.257019,-2.007935 -0.771038,-2.007935 z" />
  <path
     style="fill:#999999;stroke:#999999"
     inkscape:connector-curvature="0"
     id="path3691"
     d="m 61.643398,98.123718 c -0.208817,0 -0.382839,-0.06427 -0.522057,-0.192749 -0.139214,-0.12854 -0.20882,-0.286499 -0.20882,-0.473877 0,-0.192749 0.07162,-0.350708 0.214848,-0.473877 0.14323,-0.123169 0.32193,-0.184753 0.53611,-0.184753 0.216862,0 0.394222,0.06226 0.532101,0.186768 0.137882,0.124512 0.206821,0.281799 0.206821,0.471863 0,0.195435 -0.07028,0.355408 -0.210831,0.479858 -0.14056,0.124512 -0.32328,0.186768 -0.548172,0.186768 z" />
  <path
     style="fill:#999999;stroke:#999999"
     inkscape:connector-curvature="0"
     id="path3693"
     d="m 63.434471,97.874756 0,-1.08429 c 0.393547,0.240967 0.812538,0.36145 1.256958,0.36145 0.334648,0 0.596352,-0.07971 0.785103,-0.238953 0.188736,-0.159302 0.283112,-0.375488 0.283119,-0.64856 -8e-6,-0.570251 -0.402931,-0.855347 -1.208771,-0.855347 -0.262367,0 -0.579632,0.02405 -0.951759,0.07227 l 0,-3.216675 3.188576,0 0,1.036072 -2.104294,0 0,1.152588 c 0.168655,-0.01611 0.327957,-0.02411 0.47789,-0.02411 0.59166,0 1.054817,0.155273 1.389481,0.46582 0.334648,0.310547 0.501968,0.72821 0.501976,1.25293 -8e-6,0.580994 -0.199463,1.055481 -0.598358,1.423645 -0.398911,0.368103 -0.939713,0.552185 -1.622398,0.552185 -0.554192,0 -1.020035,-0.08301 -1.397522,-0.249023 z" />
  <rect
     style="fill:#ffffff;stroke-width:5"
     x="19"
     y="147"
     width="281"
     height="69"
     id="svg_2" />
  <rect
     style="fill:#ffffff;stroke-width:5"
     x="20"
     y="142"
     width="273"
     height="30"
     id="svg_3" />
  <rect
     style="fill:#ffffff;stroke-width:5"
     x="19"
     y="130"
     width="268"
     height="121"
     id="svg_4" />
  <line
     style="fill:#00ffff;stroke:#333333;stroke-width:7"
     x1="25"
     y1="131"
     x2="240.15906"
     y2="131"
     id="svg_5" />
</svg>
